<svg width="420" height="240" viewBox="0 0 420 240" fill="none" xmlns="http://www.w3.org/2000/svg" role="img" aria-label="Top languages for yann-yee">
  <rect width="420" height="240" rx="16" fill="#0b1220"/>
  <rect x="1" y="1" width="418" height="238" rx="15" stroke="#24364f"/>
  <circle cx="338" cy="50" r="78" fill="#22c55e" opacity="0.09"/>
  <circle cx="84" cy="222" r="90" fill="#0ea5e9" opacity="0.08"/>
  <text x="28" y="42" font-family="Segoe UI, Arial, sans-serif" font-size="22" font-weight="700" fill="#f8fafc">🧩 Top Languages</text>
  <text x="28" y="62" font-family="Segoe UI, Arial, sans-serif" font-size="11" font-weight="400" fill="#7c8da5">Aggregated from public non-fork repositories</text>
  <text x="32" y="82" font-family="Segoe UI, Arial, sans-serif" font-size="14" font-weight="600" fill="#d8e2ef">C</text><text x="318" y="82" font-family="Segoe UI, Arial, sans-serif" font-size="13" font-weight="600" fill="#a9b8ca">60.7%</text><rect x="32" y="90" width="230" height="8" rx="4" fill="#1f2a3d"/><rect x="32" y="90" width="230" height="8" rx="4" fill="#7dd3fc"/><text x="32" y="110" font-family="Segoe UI, Arial, sans-serif" font-size="14" font-weight="600" fill="#d8e2ef">Python</text><text x="318" y="110" font-family="Segoe UI, Arial, sans-serif" font-size="13" font-weight="600" fill="#a9b8ca">35.5%</text><rect x="32" y="118" width="230" height="8" rx="4" fill="#1f2a3d"/><rect x="32" y="118" width="134" height="8" rx="4" fill="#a78bfa"/><text x="32" y="138" font-family="Segoe UI, Arial, sans-serif" font-size="14" font-weight="600" fill="#d8e2ef">Rust</text><text x="318" y="138" font-family="Segoe UI, Arial, sans-serif" font-size="13" font-weight="600" fill="#a9b8ca">2.9%</text><rect x="32" y="146" width="230" height="8" rx="4" fill="#1f2a3d"/><rect x="32" y="146" width="10" height="8" rx="4" fill="#34d399"/><text x="32" y="166" font-family="Segoe UI, Arial, sans-serif" font-size="14" font-weight="600" fill="#d8e2ef">PowerShell</text><text x="318" y="166" font-family="Segoe UI, Arial, sans-serif" font-size="13" font-weight="600" fill="#a9b8ca">0.4%</text><rect x="32" y="174" width="230" height="8" rx="4" fill="#1f2a3d"/><rect x="32" y="174" width="4" height="8" rx="4" fill="#facc15"/><text x="32" y="194" font-family="Segoe UI, Arial, sans-serif" font-size="14" font-weight="600" fill="#d8e2ef">Shell</text><text x="318" y="194" font-family="Segoe UI, Arial, sans-serif" font-size="13" font-weight="600" fill="#a9b8ca">0.4%</text><rect x="32" y="202" width="230" height="8" rx="4" fill="#1f2a3d"/><rect x="32" y="202" width="4" height="8" rx="4" fill="#fb7185"/><text x="32" y="222" font-family="Segoe UI, Arial, sans-serif" font-size="14" font-weight="600" fill="#d8e2ef">Assembly</text><text x="318" y="222" font-family="Segoe UI, Arial, sans-serif" font-size="13" font-weight="600" fill="#a9b8ca">0.2%</text><rect x="32" y="230" width="230" height="8" rx="4" fill="#1f2a3d"/><rect x="32" y="230" width="4" height="8" rx="4" fill="#f97316"/>
</svg>
